<mxfile host="app.diagrams.net" modified="2023-03-08T06:45:12.754Z" agent="5.0 (Windows NT 10.0; Win64; x64) AppleWebKit/537.36 (KHTML, like Gecko) Chrome/109.0.0.0 Safari/537.36" etag="FED81wr2rMxEXCIwMpyl" version="21.0.2" type="github">
  <diagram name="Page-1" id="sy4lbH6b9MXI_pQDiSxg">
    <mxGraphModel dx="794" dy="475" grid="1" gridSize="10" guides="1" tooltips="1" connect="1" arrows="1" fold="1" page="1" pageScale="1" pageWidth="827" pageHeight="1169" background="none" math="0" shadow="1">
      <root>
        <mxCell id="0" />
        <mxCell id="1" parent="0" />
        <mxCell id="prt6e-ABzlM5Ey696iCb-1" value="Git/Bitbucket" style="ellipse;whiteSpace=wrap;html=1;aspect=fixed;labelBackgroundColor=none;fillColor=#FFE45E;strokeColor=#FF6392;fontColor=#5AA9E6;" vertex="1" parent="1">
          <mxGeometry x="130" y="630" width="80" height="80" as="geometry" />
        </mxCell>
        <mxCell id="prt6e-ABzlM5Ey696iCb-3" value="SCM" style="text;html=1;align=center;verticalAlign=middle;resizable=0;points=[];autosize=1;strokeColor=none;fillColor=none;labelBackgroundColor=none;fontColor=#5AA9E6;" vertex="1" parent="1">
          <mxGeometry x="145" y="710" width="50" height="30" as="geometry" />
        </mxCell>
        <mxCell id="prt6e-ABzlM5Ey696iCb-4" value="Jenkins" style="ellipse;whiteSpace=wrap;html=1;labelBackgroundColor=none;fillColor=#FFE45E;strokeColor=#FF6392;fontColor=#5AA9E6;" vertex="1" parent="1">
          <mxGeometry x="340" y="630" width="120" height="80" as="geometry" />
        </mxCell>
        <mxCell id="prt6e-ABzlM5Ey696iCb-5" value="CI/CD" style="text;html=1;align=center;verticalAlign=middle;resizable=0;points=[];autosize=1;strokeColor=none;fillColor=none;labelBackgroundColor=none;fontColor=#5AA9E6;" vertex="1" parent="1">
          <mxGeometry x="370" y="710" width="60" height="30" as="geometry" />
        </mxCell>
        <mxCell id="prt6e-ABzlM5Ey696iCb-7" value="Developer" style="shape=umlActor;verticalLabelPosition=bottom;verticalAlign=top;html=1;outlineConnect=0;labelBackgroundColor=none;fillColor=#FFE45E;strokeColor=#FF6392;fontColor=#5AA9E6;" vertex="1" parent="1">
          <mxGeometry x="155" y="870" width="30" height="60" as="geometry" />
        </mxCell>
        <mxCell id="prt6e-ABzlM5Ey696iCb-10" value="Harbor" style="ellipse;shape=cloud;whiteSpace=wrap;html=1;labelBackgroundColor=none;fillColor=#FFE45E;strokeColor=#FF6392;fontColor=#5AA9E6;" vertex="1" parent="1">
          <mxGeometry x="600" y="630" width="120" height="80" as="geometry" />
        </mxCell>
        <mxCell id="prt6e-ABzlM5Ey696iCb-11" value="Container Registry" style="text;html=1;align=center;verticalAlign=middle;resizable=0;points=[];autosize=1;strokeColor=none;fillColor=none;labelBackgroundColor=none;fontColor=#5AA9E6;" vertex="1" parent="1">
          <mxGeometry x="610" y="710" width="120" height="30" as="geometry" />
        </mxCell>
        <mxCell id="prt6e-ABzlM5Ey696iCb-12" value="K8S" style="swimlane;startSize=20;horizontal=1;containerType=tree;newEdgeStyle={&quot;edgeStyle&quot;:&quot;elbowEdgeStyle&quot;,&quot;startArrow&quot;:&quot;none&quot;,&quot;endArrow&quot;:&quot;none&quot;};labelBackgroundColor=none;fillColor=#FFE45E;strokeColor=#FF6392;fontColor=#5AA9E6;" vertex="1" parent="1">
          <mxGeometry x="390" y="800" width="280" height="220" as="geometry" />
        </mxCell>
        <mxCell id="prt6e-ABzlM5Ey696iCb-13" value="" style="edgeStyle=elbowEdgeStyle;elbow=vertical;sourcePerimeterSpacing=0;targetPerimeterSpacing=0;startArrow=none;endArrow=none;rounded=0;curved=0;labelBackgroundColor=none;strokeColor=#FF6392;fontColor=default;" edge="1" parent="prt6e-ABzlM5Ey696iCb-12" source="prt6e-ABzlM5Ey696iCb-15" target="prt6e-ABzlM5Ey696iCb-16">
          <mxGeometry relative="1" as="geometry" />
        </mxCell>
        <mxCell id="prt6e-ABzlM5Ey696iCb-14" value="" style="edgeStyle=elbowEdgeStyle;elbow=vertical;sourcePerimeterSpacing=0;targetPerimeterSpacing=0;startArrow=none;endArrow=none;rounded=0;curved=0;labelBackgroundColor=none;strokeColor=#FF6392;fontColor=default;" edge="1" parent="prt6e-ABzlM5Ey696iCb-12" source="prt6e-ABzlM5Ey696iCb-15" target="prt6e-ABzlM5Ey696iCb-17">
          <mxGeometry relative="1" as="geometry" />
        </mxCell>
        <UserObject label="Master Node" treeRoot="1" id="prt6e-ABzlM5Ey696iCb-15">
          <mxCell style="whiteSpace=wrap;html=1;align=center;treeFolding=1;treeMoving=1;newEdgeStyle={&quot;edgeStyle&quot;:&quot;elbowEdgeStyle&quot;,&quot;startArrow&quot;:&quot;none&quot;,&quot;endArrow&quot;:&quot;none&quot;};labelBackgroundColor=none;fillColor=#FFE45E;strokeColor=#FF6392;fontColor=#5AA9E6;" vertex="1" parent="prt6e-ABzlM5Ey696iCb-12">
            <mxGeometry x="80" y="40" width="120" height="60" as="geometry" />
          </mxCell>
        </UserObject>
        <mxCell id="prt6e-ABzlM5Ey696iCb-16" value="Worker01" style="whiteSpace=wrap;html=1;align=center;verticalAlign=middle;treeFolding=1;treeMoving=1;newEdgeStyle={&quot;edgeStyle&quot;:&quot;elbowEdgeStyle&quot;,&quot;startArrow&quot;:&quot;none&quot;,&quot;endArrow&quot;:&quot;none&quot;};labelBackgroundColor=none;fillColor=#FFE45E;strokeColor=#FF6392;fontColor=#5AA9E6;" vertex="1" parent="prt6e-ABzlM5Ey696iCb-12">
          <mxGeometry x="20" y="140" width="100" height="60" as="geometry" />
        </mxCell>
        <mxCell id="prt6e-ABzlM5Ey696iCb-17" value="Worker02" style="whiteSpace=wrap;html=1;align=center;verticalAlign=middle;treeFolding=1;treeMoving=1;newEdgeStyle={&quot;edgeStyle&quot;:&quot;elbowEdgeStyle&quot;,&quot;startArrow&quot;:&quot;none&quot;,&quot;endArrow&quot;:&quot;none&quot;};labelBackgroundColor=none;fillColor=#FFE45E;strokeColor=#FF6392;fontColor=#5AA9E6;" vertex="1" parent="prt6e-ABzlM5Ey696iCb-12">
          <mxGeometry x="160" y="140" width="100" height="60" as="geometry" />
        </mxCell>
        <mxCell id="prt6e-ABzlM5Ey696iCb-19" value="" style="html=1;shadow=0;dashed=0;align=center;verticalAlign=middle;shape=mxgraph.arrows2.arrow;dy=0.6;dx=40;direction=north;notch=0;labelBackgroundColor=none;fillColor=#FFE45E;strokeColor=#FF6392;fontColor=#5AA9E6;" vertex="1" parent="1">
          <mxGeometry x="165" y="750" width="10" height="100" as="geometry" />
        </mxCell>
        <mxCell id="prt6e-ABzlM5Ey696iCb-21" value="" style="html=1;shadow=0;dashed=0;align=center;verticalAlign=middle;shape=mxgraph.arrows2.twoWayArrow;dy=0.65;dx=22;labelBackgroundColor=none;fillColor=#FFE45E;strokeColor=#FF6392;fontColor=#5AA9E6;" vertex="1" parent="1">
          <mxGeometry x="220" y="660" width="100" height="20" as="geometry" />
        </mxCell>
        <mxCell id="prt6e-ABzlM5Ey696iCb-22" value="" style="html=1;shadow=0;dashed=0;align=center;verticalAlign=middle;shape=mxgraph.arrows2.arrow;dy=0.6;dx=40;notch=0;labelBackgroundColor=none;fillColor=#FFE45E;strokeColor=#FF6392;fontColor=#5AA9E6;" vertex="1" parent="1">
          <mxGeometry x="470" y="663" width="130" height="21" as="geometry" />
        </mxCell>
        <mxCell id="prt6e-ABzlM5Ey696iCb-26" value="" style="shape=flexArrow;endArrow=classic;html=1;rounded=0;strokeColor=#FF6392;fontColor=#5AA9E6;fillColor=#FFE45E;entryX=0.011;entryY=0.811;entryDx=0;entryDy=0;entryPerimeter=0;" edge="1" parent="1">
          <mxGeometry width="50" height="50" relative="1" as="geometry">
            <mxPoint x="561" y="783" as="sourcePoint" />
            <mxPoint x="612.3199999999999" y="727.3299999999999" as="targetPoint" />
          </mxGeometry>
        </mxCell>
        <mxCell id="prt6e-ABzlM5Ey696iCb-27" value="" style="shape=flexArrow;endArrow=classic;html=1;rounded=0;strokeColor=#FF6392;fontColor=#5AA9E6;fillColor=#FFE45E;" edge="1" parent="1">
          <mxGeometry width="50" height="50" relative="1" as="geometry">
            <mxPoint x="450" y="710" as="sourcePoint" />
            <mxPoint x="510" y="790" as="targetPoint" />
          </mxGeometry>
        </mxCell>
      </root>
    </mxGraphModel>
  </diagram>
</mxfile>
